<?xml version="1.0" standalone="no"?>
<!DOCTYPE svg PUBLIC "-//W3C//DTD SVG 20010904//EN"
 "http://www.w3.org/TR/2001/REC-SVG-20010904/DTD/svg10.dtd">
<svg version="1.0" xmlns="http://www.w3.org/2000/svg"
 width="1200.000000pt" height="1200.000000pt" viewBox="0 0 1200.000000 1200.000000"
 preserveAspectRatio="xMidYMid meet">

<g transform="translate(0.000000,1200.000000) scale(0.100000,-0.100000)"
fill="#000000" stroke="none">
<path d="M3907 8625 c-84 -44 -299 -179 -304 -191 -3 -8 1 -21 8 -30 22 -27
312 -194 348 -200 50 -10 94 9 259 110 142 88 162 108 130 136 -7 6 -80 51
-163 100 -136 81 -155 90 -200 90 -27 0 -62 -7 -78 -15z"/>
<path d="M3410 8323 c-27 -10 -308 -183 -319 -197 -18 -21 12 -48 134 -123
237 -144 239 -144 399 -47 264 160 260 153 130 229 -47 28 -123 71 -168 97
-79 47 -128 58 -176 41z"/>
<path d="M4425 8309 c-22 -12 -89 -52 -150 -88 -60 -37 -118 -70 -128 -74 -13
-5 -17 -15 -15 -34 3 -24 24 -41 143 -115 158 -99 212 -120 265 -105 46 12
298 162 328 194 18 20 20 28 11 39 -6 8 -80 56 -163 106 -174 105 -219 117
-291 77z"/>
<path d="M2905 8013 c-25 -7 -333 -191 -341 -205 -10 -16 33 -51 173 -136 147
-89 190 -107 236 -98 41 8 336 185 349 209 6 12 6 23 -2 32 -6 8 -80 54 -164
104 -149 88 -201 108 -251 94z"/>
<path d="M3930 8005 c-59 -21 -315 -181 -318 -199 -2 -9 2 -24 9 -32 22 -27
310 -193 345 -200 47 -9 72 2 242 105 141 86 170 110 157 132 -9 14 -318 196
-344 202 -17 4 14 -33 104 -123 71 -71 127 -132 124 -134 -3 -3 -61 51 -129
120 -69 69 -132 129 -140 133 -9 6 -29 4 -50 -4z"/>
<path d="M4985 8013 c-11 -3 -91 -48 -177 -100 -163 -97 -178 -113 -140 -145
24 -22 194 -125 272 -166 50 -26 73 -33 102 -29 43 6 352 188 362 213 4 9 2
22 -4 29 -6 8 -80 54 -165 104 -150 88 -201 107 -250 94z"/>
<path d="M2358 7687 c-74 -34 -308 -184 -308 -198 0 -25 35 -52 190 -144 191
-114 186 -114 396 13 164 100 183 116 168 138 -5 7 -81 57 -168 109 -141 84
-164 95 -205 95 -25 -1 -58 -6 -73 -13z"/>
<path d="M3255 7602 c-118 -72 -161 -103 -163 -119 -3 -18 22 -37 165 -122
220 -132 206 -132 409 -10 158 94 190 119 181 142 -3 8 -78 57 -168 110 -219
130 -208 130 -424 -1z"/>
<path d="M4413 7675 l-42 -26 135 -135 c75 -74 133 -138 130 -142 -4 -3 -67
54 -140 127 -74 74 -140 131 -148 129 -34 -8 -218 -124 -218 -138 0 -27 14
-38 175 -135 207 -125 202 -125 401 -4 159 96 190 120 182 140 -3 8 -75 57
-159 109 -142 86 -159 94 -214 97 -51 3 -66 0 -102 -22z"/>
<path d="M5345 7609 c-82 -50 -156 -94 -164 -98 -9 -5 -12 -17 -8 -32 5 -18
48 -49 169 -121 215 -128 201 -128 404 -7 165 98 194 121 179 145 -6 8 -82 57
-170 109 -214 127 -207 127 -410 4z"/>
<path d="M2885 7377 c-33 -16 -295 -174 -308 -187 -23 -21 12 -53 153 -138
155 -95 196 -112 245 -105 17 3 102 48 190 101 116 71 161 103 163 118 3 18
-24 37 -159 119 -174 106 -221 121 -284 92z"/>
<path d="M3940 7383 c-8 -3 -86 -48 -173 -100 -134 -80 -158 -98 -155 -116 2
-16 43 -46 156 -114 172 -103 205 -116 259 -101 32 9 241 128 316 181 30 21
34 54 7 68 -8 5 -80 48 -160 95 -115 70 -154 88 -190 90 -25 2 -52 1 -60 -3z"/>
<path d="M4980 7384 c-26 -11 -201 -117 -206 -126 -3 -5 50 -62 118 -128 67
-65 120 -122 116 -126 -5 -4 -64 49 -133 117 l-126 124 -47 -27 c-65 -37 -66
-60 -7 -95 26 -16 96 -59 157 -97 120 -74 159 -88 213 -76 37 8 311 172 333
198 6 9 12 22 12 29 0 7 -73 56 -162 109 -131 78 -172 98 -208 100 -25 2 -52
1 -60 -2z"/>
<path d="M6020 7383 c-47 -19 -330 -196 -330 -207 0 -25 28 -46 167 -130 149
-89 190 -106 238 -99 48 7 349 194 353 219 2 17 -26 38 -159 119 -133 81 -170
99 -208 101 -25 2 -53 1 -61 -3z"/>
<path d="M7199 7222 c-48 -20 -87 -41 -88 -47 0 -5 27 -38 61 -73 59 -60 60
-63 44 -81 -17 -19 -16 -20 21 -44 l38 -24 67 71 c79 83 95 120 78 172 -12 35
-12 35 -27 15 -20 -29 -32 -26 -73 14 l-35 34 -86 -37z"/>
<path d="M7012 7141 c-9 -5 2 -19 40 -48 92 -70 109 -72 48 -6 -57 63 -66 68
-88 54z"/>
<path d="M3380 7047 c-107 -57 -273 -162 -284 -179 -15 -25 0 -37 172 -140
211 -125 204 -125 408 0 84 51 157 99 164 107 6 8 9 22 6 32 -9 25 -312 201
-361 208 -34 6 -50 1 -105 -28z"/>
<path d="M4460 7066 c-50 -19 -312 -180 -324 -199 -15 -24 5 -40 172 -140 145
-87 190 -105 239 -92 32 8 287 158 321 188 12 11 22 28 22 37 0 10 -56 50
-152 107 -202 121 -211 124 -278 99z"/>
<path d="M5500 7067 c-19 -8 -95 -50 -168 -95 -73 -45 -136 -82 -141 -82 -16
0 -24 -40 -11 -55 6 -7 81 -55 168 -107 208 -124 207 -124 387 -14 164 99 195
123 195 144 0 22 -310 208 -360 216 -19 3 -51 0 -70 -7z"/>
<path d="M6548 7071 c-30 -10 -282 -160 -319 -190 -19 -15 -22 -23 -14 -37 13
-21 288 -190 334 -205 52 -18 89 -6 212 68 162 97 209 131 209 152 0 13 -28
36 -87 71 -72 42 -94 51 -120 47 -32 -6 -53 6 -33 18 18 11 10 22 -37 48 -56
29 -107 39 -145 28z m309 -163 c55 -56 56 -58 38 -73 -33 -24 -48 -18 -119 54
l-69 70 34 3 c19 2 39 3 46 4 7 0 38 -26 70 -58z"/>
<path d="M3785 6666 c-87 -53 -163 -103 -168 -112 -13 -24 11 -44 146 -125
118 -69 730 -438 2115 -1271 602 -363 672 -402 717 -406 48 -4 56 -1 212 94
90 54 165 106 168 115 6 19 -3 49 -15 49 -7 0 -556 329 -2265 1358 -602 362
-643 385 -695 389 -54 5 -56 4 -215 -91z"/>
<path d="M4823 6663 c-90 -54 -165 -104 -168 -112 -9 -22 8 -35 168 -133 148
-90 154 -93 212 -93 58 0 65 4 212 93 84 51 158 102 163 112 14 26 4 34 -170
137 -126 75 -152 87 -200 90 -54 4 -57 3 -217 -94z"/>
<path d="M5890 6679 c-74 -45 -148 -89 -163 -97 -37 -18 -44 -38 -22 -62 9
-10 86 -60 171 -111 203 -121 197 -121 414 12 128 79 155 99 155 119 0 19 -27
39 -155 118 -138 86 -161 96 -210 100 -54 3 -58 2 -190 -79z"/>
<path d="M7028 6737 c-20 -12 -63 -37 -95 -56 -133 -77 -203 -124 -203 -135 0
-20 24 -37 180 -132 161 -97 207 -111 271 -79 85 43 301 180 309 196 13 23
-11 41 -194 148 -158 92 -198 100 -268 58z"/>
<path d="M5501 6439 c-30 -12 -281 -163 -310 -186 -14 -11 -20 -24 -16 -34 8
-22 303 -198 352 -211 31 -7 48 -6 79 7 66 27 322 185 329 202 3 10 -2 24 -12
33 -20 19 -297 183 -328 194 -21 8 -20 5 70 -94 30 -33 22 -28 -30 20 -38 35
-71 67 -73 72 -5 10 -31 9 -61 -3z"/>
<path d="M6395 6355 c-198 -119 -197 -118 -165 -149 40 -37 285 -184 327 -195
57 -16 97 -1 252 95 155 94 180 116 162 138 -7 8 -82 56 -167 107 -216 128
-204 128 -409 4z"/>
<path d="M7565 6431 c-92 -45 -300 -178 -303 -195 -6 -27 12 -41 157 -128 162
-98 199 -112 249 -98 47 13 339 188 347 208 8 22 -12 38 -179 137 -167 99
-204 109 -271 76z"/>
<path d="M6030 6127 c-42 -16 -322 -185 -332 -200 -14 -22 14 -45 166 -136
173 -104 216 -117 277 -86 70 36 297 175 309 191 15 17 6 41 -21 55 -8 5 -78
46 -156 93 -151 91 -188 103 -243 83z"/>
<path d="M7072 6129 c-37 -14 -310 -180 -323 -195 -6 -8 -9 -20 -6 -27 5 -12
165 -115 367 -234 54 -32 86 -58 88 -70 2 -16 -34 -42 -190 -135 -106 -64
-209 -125 -228 -135 -40 -22 -49 -52 -23 -75 34 -29 294 -180 326 -189 17 -5
47 -6 65 -3 19 4 194 103 390 222 197 118 383 231 414 249 64 39 82 69 52 90
-18 13 -385 234 -674 406 -174 104 -207 117 -258 96z"/>
<path d="M8109 6126 c-45 -16 -310 -175 -326 -196 -6 -9 -8 -21 -3 -30 5 -8
80 -58 167 -110 149 -90 161 -95 213 -95 52 0 64 6 208 94 155 95 186 123 160
146 -32 29 -300 185 -335 194 -45 13 -39 13 -84 -3z"/>
<path d="M6450 5759 c-58 -34 -109 -66 -115 -70 -6 -6 36 -55 110 -129 66 -66
113 -120 105 -120 -7 0 -65 52 -129 116 l-115 116 -35 -20 c-42 -24 -56 -43
-49 -64 4 -8 75 -57 160 -108 135 -82 160 -94 208 -98 54 -4 57 -2 210 89 85
51 161 100 167 108 19 24 11 42 -28 65 -20 12 -92 54 -160 95 -171 103 -187
104 -329 20z"/>
<path d="M8565 5780 c-38 -22 -113 -66 -165 -98 -134 -82 -134 -81 60 -200
137 -84 161 -96 210 -99 55 -5 56 -4 217 93 161 96 190 123 162 148 -8 7 -84
54 -169 104 -189 111 -206 114 -315 52z"/>
<path d="M8069 5477 c-283 -162 -306 -179 -279 -212 18 -22 298 -186 335 -196
23 -7 48 -6 74 1 40 10 289 157 325 190 29 28 12 51 -72 100 -42 25 -117 69
-166 98 -109 63 -137 65 -217 19z"/>
<path d="M9143 5496 c-18 -8 -98 -54 -178 -102 -102 -61 -145 -92 -145 -105 0
-21 37 -47 210 -149 172 -102 176 -102 372 17 81 49 154 95 162 103 35 28 18
46 -149 144 -175 104 -215 117 -272 92z"/>
<path d="M7598 5186 c-52 -19 -329 -187 -335 -204 -9 -21 21 -45 177 -139 135
-81 149 -87 201 -88 52 0 64 5 200 87 188 113 183 109 175 141 -3 15 -11 27
-16 27 -5 0 -71 37 -147 83 -120 73 -191 108 -212 107 -3 -1 -23 -7 -43 -14z"/>
<path d="M8640 5189 c-47 -19 -332 -193 -337 -206 -9 -22 12 -38 170 -135 148
-91 153 -93 212 -92 58 0 65 3 215 95 160 99 179 119 143 151 -31 26 -286 174
-322 186 -40 14 -48 14 -81 1z"/>
<path d="M9683 5189 c-44 -13 -333 -188 -340 -205 -9 -24 21 -48 155 -127 238
-140 216 -139 428 -11 88 53 162 101 166 108 13 20 8 46 -9 53 -10 4 -83 46
-163 94 -153 91 -185 103 -237 88z"/>
<path d="M7070 4873 c-8 -4 -77 -44 -152 -90 -75 -45 -142 -83 -147 -83 -14 0
-32 -36 -26 -52 3 -7 78 -57 167 -111 149 -90 165 -97 213 -97 46 0 63 7 161
67 60 36 128 77 152 91 23 13 49 33 57 45 13 19 13 23 -3 38 -32 31 -325 199
-346 199 -15 0 13 -33 109 -130 71 -71 127 -132 124 -134 -3 -3 -65 55 -139
129 -74 74 -139 135 -145 134 -5 0 -17 -3 -25 -6z"/>
<path d="M8095 4864 c-91 -50 -294 -176 -305 -189 -20 -24 7 -47 174 -146 202
-120 201 -120 397 -3 79 48 155 97 169 110 24 24 24 24 5 42 -11 10 -86 58
-167 107 -163 97 -213 112 -273 79z"/>
<path d="M9136 4865 c-16 -9 -84 -49 -151 -90 -67 -41 -127 -75 -133 -75 -6 0
-16 -10 -23 -21 -16 -31 8 -51 182 -153 197 -116 196 -116 390 0 79 48 152 93
162 102 38 33 18 53 -153 154 -177 105 -211 116 -274 83z"/>
<path d="M7563 4544 c-29 -15 -53 -31 -53 -35 0 -3 57 -66 128 -139 70 -73
129 -137 131 -144 2 -6 -59 51 -136 127 -76 75 -143 137 -150 137 -6 0 -49
-23 -95 -50 -46 -28 -90 -54 -98 -59 -8 -4 -16 -20 -18 -34 -3 -24 11 -34 160
-123 219 -131 212 -131 414 -9 162 98 186 117 178 139 -3 9 -78 58 -167 111
-188 112 -215 119 -294 79z"/>
<path d="M8610 4546 c-70 -37 -284 -165 -298 -180 -7 -7 -10 -20 -6 -29 3 -10
79 -61 168 -114 215 -130 209 -130 411 -9 81 49 156 97 166 107 24 24 13 50
-28 72 -16 7 -80 45 -143 84 -168 102 -195 108 -270 69z"/>
<path d="M8130 4248 c-19 -5 -79 -37 -133 -70 l-99 -61 128 -128 c70 -71 125
-131 121 -135 -3 -4 -65 51 -137 121 -129 127 -130 128 -157 115 -51 -26 -73
-51 -62 -71 13 -25 304 -197 346 -205 18 -3 48 -3 66 0 34 6 296 162 331 196
23 23 16 43 -21 62 -15 8 -82 48 -148 88 -96 58 -190 105 -199 99 0 0 -17 -5
-36 -11z"/>
</g>
</svg>
