<?xml version="1.0" standalone="no"?>
<!DOCTYPE svg PUBLIC "-//W3C//DTD SVG 20010904//EN"
 "http://www.w3.org/TR/2001/REC-SVG-20010904/DTD/svg10.dtd">
<svg version="1.0" xmlns="http://www.w3.org/2000/svg"
 width="512.000000pt" height="512.000000pt" viewBox="0 0 512.000000 512.000000"
 preserveAspectRatio="xMidYMid meet">

<g transform="translate(0.000000,512.000000) scale(0.100000,-0.100000)"
fill="#000000" stroke="none">
<path d="M244 3492 c-33 -22 -34 -46 -34 -932 0 -886 1 -910 34 -932 6 -4
1049 -8 2318 -8 2083 0 2308 2 2322 16 9 8 18 25 21 37 3 12 4 422 3 910 -3
866 -3 889 -22 903 -17 12 -350 14 -2325 14 -1268 0 -2311 -4 -2317 -8z m356
-152 l0 -50 -140 0 -140 0 0 50 0 50 140 0 140 0 0 -50z m350 0 l0 -50 -140 0
-140 0 0 50 0 50 140 0 140 0 0 -50z m350 0 l0 -50 -140 0 -140 0 0 50 0 50
140 0 140 0 0 -50z m350 0 l0 -50 -140 0 -140 0 0 50 0 50 140 0 140 0 0 -50z
m350 0 l0 -50 -140 0 -140 0 0 50 0 50 140 0 140 0 0 -50z m350 0 l0 -50 -140
0 -140 0 0 50 0 50 140 0 140 0 0 -50z m350 0 l0 -50 -140 0 -140 0 0 50 0 50
140 0 140 0 0 -50z m350 0 l0 -50 -140 0 -140 0 0 50 0 50 140 0 140 0 0 -50z
m350 0 l0 -50 -140 0 -140 0 0 50 0 50 140 0 140 0 0 -50z m350 0 l0 -50 -140
0 -140 0 0 50 0 50 140 0 140 0 0 -50z m350 0 l0 -50 -140 0 -140 0 0 50 0 50
140 0 140 0 0 -50z m350 0 l0 -50 -140 0 -140 0 0 50 0 50 140 0 140 0 0 -50z
m350 0 l0 -50 -140 0 -140 0 0 50 0 50 140 0 140 0 0 -50z m-4210 -245 l0 -95
-130 0 -130 0 0 95 0 95 130 0 130 0 0 -95z m320 0 l0 -95 -129 0 -128 0 -1
95 0 95 129 0 129 0 0 -95z m330 0 l0 -95 -130 0 -130 0 0 95 0 95 130 0 130
0 0 -95z m320 0 l0 -95 -130 0 -130 0 0 95 0 95 130 0 130 0 0 -95z m320 0 l0
-95 -130 0 -130 0 0 95 0 95 130 0 130 0 0 -95z m320 0 l0 -95 -130 0 -130 0
0 95 0 95 130 0 130 0 0 -95z m320 0 l0 -95 -130 0 -130 0 0 95 0 95 130 0
130 0 0 -95z m320 0 l0 -95 -130 0 -130 0 0 95 0 95 130 0 130 0 0 -95z m322
0 l-3 -95 -125 0 -124 0 0 95 0 95 128 0 127 0 -3 -95z m328 0 l0 -95 -130 0
-130 0 0 95 0 95 130 0 130 0 0 -95z m320 0 l0 -95 -130 0 -130 0 0 95 0 95
130 0 130 0 0 -95z m320 0 l0 -95 -130 0 -130 0 0 95 0 95 130 0 130 0 0 -95z
m320 0 l0 -95 -130 0 -130 0 0 95 0 95 130 0 130 0 0 -95z m340 0 l0 -95 -130
0 -130 0 0 95 0 95 130 0 130 0 0 -95z m-4060 -275 l0 -100 -197 2 -198 3 -3
84 c-2 46 -1 90 2 98 4 10 47 13 201 13 l195 0 0 -100z m320 0 l0 -100 -130 0
-130 0 0 100 0 100 130 0 130 0 0 -100z m310 0 l0 -100 -130 0 -130 0 0 100 0
100 130 0 130 0 0 -100z m310 0 l0 -100 -130 0 -130 0 0 100 0 100 130 0 130
0 0 -100z m310 0 l0 -100 -130 0 -130 0 0 100 0 100 130 0 130 0 0 -100z m310
0 l0 -100 -130 0 -130 0 0 100 0 100 130 0 130 0 0 -100z m310 0 l0 -100 -130
0 -130 0 0 100 0 100 130 0 130 0 0 -100z m310 0 l0 -100 -130 0 -130 0 0 100
0 100 130 0 130 0 0 -100z m310 0 l0 -100 -130 0 -130 0 0 100 0 100 130 0
130 0 0 -100z m310 0 l0 -100 -130 0 -130 0 0 100 0 100 130 0 130 0 0 -100z
m310 0 l0 -100 -130 0 -130 0 0 100 0 100 130 0 130 0 0 -100z m310 0 l0 -101
-127 3 -128 3 -3 84 c-2 46 -1 90 2 98 4 10 35 13 131 13 l125 0 0 -100z m310
0 l0 -101 -127 3 -128 3 -3 84 c-2 46 -1 90 2 98 4 10 35 13 131 13 l125 0 0
-100z m325 0 l0 -95 -127 -3 -128 -3 0 101 0 101 128 -3 127 -3 0 -95z m-4005
-285 l0 -95 -225 0 -225 0 0 95 0 95 225 0 225 0 0 -95z m330 0 l0 -95 -130 0
-130 0 0 95 0 95 130 0 130 0 0 -95z m320 0 l0 -95 -130 0 -130 0 0 95 0 95
130 0 130 0 0 -95z m320 0 l0 -95 -130 0 -130 0 0 95 0 95 130 0 130 0 0 -95z
m320 0 l0 -95 -130 0 -130 0 0 95 0 95 130 0 130 0 0 -95z m320 0 l0 -95 -130
0 -130 0 0 95 0 95 130 0 130 0 0 -95z m317 3 l-2 -93 -127 -3 -128 -3 0 96 0
95 129 0 129 0 -1 -92z m313 -3 l0 -96 -127 3 -128 3 -3 93 -3 92 131 0 130 0
0 -95z m320 0 l0 -95 -130 0 -130 0 0 95 0 95 130 0 130 0 0 -95z m320 0 l0
-95 -130 0 -130 0 0 95 0 95 130 0 130 0 0 -95z m320 0 l0 -95 -130 0 -130 0
0 95 0 95 130 0 130 0 0 -95z m320 0 l0 -95 -130 0 -130 0 0 95 0 95 130 0
130 0 0 -95z m490 0 l0 -95 -215 0 -215 0 0 95 0 95 215 0 215 0 0 -95z
m-3867 -257 l-1 -93 -296 -3 -296 -2 0 95 0 95 298 0 297 0 -2 -92z m327 -3
l0 -95 -130 0 -130 0 0 95 0 95 130 0 130 0 0 -95z m310 0 l0 -95 -130 0 -130
0 0 95 0 95 130 0 130 0 0 -95z m310 0 l0 -95 -130 0 -130 0 0 95 0 95 130 0
130 0 0 -95z m310 0 l0 -95 -130 0 -130 0 0 95 0 95 130 0 130 0 0 -95z m310
0 l0 -95 -130 0 -130 0 0 95 0 95 130 0 130 0 0 -95z m310 0 l0 -96 -127 3
-128 3 -3 93 -3 92 131 0 130 0 0 -95z m310 0 l0 -96 -127 3 -128 3 0 93 0 92
127 0 128 0 0 -95z m312 0 l-3 -95 -124 0 -124 0 -3 95 -3 95 130 0 130 0 -3
-95z m310 0 l-3 -95 -125 0 -124 0 0 95 0 95 128 0 127 0 -3 -95z m315 3 l-2
-93 -127 -3 -128 -3 0 96 0 95 129 0 129 0 -1 -92z m743 -3 l0 -95 -345 0
-345 0 0 95 0 95 345 0 345 0 0 -95z m-320 -205 l0 -70 -130 0 -130 0 0 70 0
70 130 0 130 0 0 -70z m-3380 -90 l0 -140 -175 0 -175 0 0 135 0 135 173 3
c94 1 173 4 175 5 1 1 2 -61 2 -138z m2332 -3 l3 -137 -122 0 -123 0 0 138 0
137 120 0 119 0 3 -138z m-2732 -2 l0 -135 -180 0 -180 0 0 135 0 135 180 0
180 0 0 -135z m2440 0 l0 -135 -990 0 -990 0 0 135 0 135 990 0 990 0 0 -135z
m720 0 l0 -135 -185 0 -185 0 0 135 0 135 185 0 185 0 0 -135z m310 -70 l0
-65 -135 0 -135 0 0 65 0 65 135 0 135 0 0 -65z m310 0 l0 -65 -130 0 -130 0
0 65 0 65 130 0 130 0 0 -65z m310 0 l0 -65 -130 0 -130 0 0 65 0 65 130 0
130 0 0 -65z"/>
</g>
</svg>
